<svg width="37" height="37" viewBox="0 0 37 37" fill="none" xmlns="http://www.w3.org/2000/svg">
<path id="Dawn" d="M18.85 0.574951L18.8535 18.5572L25.7383 1.94511L18.86 18.56L31.5779 5.84704L18.865 18.5649L35.4798 11.6866L18.8677 18.5715L36.85 18.575L18.8677 18.5784L35.4798 25.4633L18.865 18.585L31.5779 31.3028L18.86 18.5899L25.7383 35.2048L18.8535 18.5927L18.85 36.575L18.8465 18.5927L11.9617 35.2048L18.84 18.5899L6.12209 31.3028L18.8351 18.585L2.22017 25.4633L18.8323 18.5784L0.850006 18.575L18.8323 18.5715L2.22017 11.6866L18.8351 18.5649L6.12209 5.84704L18.84 18.56L11.9617 1.94511L18.8465 18.5572L18.85 0.574951Z" fill="#C8FEC7" stroke="#C8FEC7" stroke-width="1.8"/>
</svg>
